<?xml version="1.0" encoding="UTF-8"?>
<svg id="Camada_2" xmlns="http://www.w3.org/2000/svg" viewBox="0 0 217.82 106.08">
  <defs>
    <style>
      .cls-1 {
        fill: #e3811e;
      }

      .cls-2 {
        fill: #f1cc30;
      }
    </style>
  </defs>
  <g id="OBJECTS">
    <g>
      <path class="cls-2" d="M109.85,32.91c0-4.09-3.32-7.41-7.41-7.41H31.68c-4.09,0-7.41,3.32-7.41,7.41s3.32,7.41,7.41,7.41h70.76c4.09,0,7.41-3.32,7.41-7.41Z"/>
      <path class="cls-2" d="M31.68,14.81h13.17c4.09,0,7.41-3.32,7.41-7.41S48.93,0,44.84,0h-13.17C27.59,0,24.27,3.32,24.27,7.41s3.32,7.41,7.41,7.41Z"/>
      <path class="cls-2" d="M7.41,25.51c-1.95,0-3.86.79-5.24,2.17s-2.17,3.29-2.17,5.24.79,3.86,2.17,5.24,3.29,2.17,5.24,2.17,3.86-.79,5.24-2.17c1.38-1.38,2.17-3.29,2.17-5.24s-.79-3.86-2.17-5.24c-1.38-1.38-3.29-2.17-5.24-2.17Z"/>
      <path class="cls-2" d="M74.47,58.63c0-4.09-3.32-7.41-7.41-7.41h-18.93c-4.09,0-7.41,3.32-7.41,7.41s3.32,7.41,7.41,7.41h18.93c4.09,0,7.41-3.32,7.41-7.41Z"/>
      <path class="cls-1" d="M202.65,15.18C193.29,5.81,180.29,0,166.01,0h-98.95C62.97,0,59.66,3.32,59.66,7.41s3.32,7.41,7.41,7.41h0s98.95,0,98.95,0c10.24,0,19.45,4.13,26.17,10.84,6.71,6.72,10.83,15.92,10.84,26.17h0c0,10.24-4.13,19.45-10.84,26.17-6.72,6.71-15.92,10.83-26.17,10.84h-33.97c-8.07,0-15.47-2.56-21.56-6.92-1.97-1.42-4.5-1.78-6.79-.97-2.83,1-5.78,2.12-8.63,3.24l3.64-5.68c2.02-2.19,2.6-5.44,1.21-8.27l-.07-.14c-.04-.07-.08-.14-.12-.21h0c-2.11-3.77-3.58-7.94-4.26-12.37-.62-4.04-4.4-6.81-8.45-6.19-4.04.62-6.81,4.4-6.19,8.45.71,4.6,2.03,9.01,3.87,13.14l-12.65,19.78h0c-.87,1.32-1.41,3.03-1.4,4.73,0,2.51,1.1,4.77,2.71,6.28,1.6,1.53,3.79,2.41,6.07,2.41,1.09,0,2.19-.21,3.19-.59.54-.2,1.05-.46,1.52-.75,1.24-.54,4.55-1.99,8.74-3.72,3.71-1.54,8.11-3.31,12.32-4.88,7.83,4.75,17.04,7.49,26.84,7.49h33.97c14.28,0,27.29-5.81,36.64-15.18,9.37-9.35,15.18-22.35,15.18-36.64h0c0-14.29-5.81-27.29-15.18-36.64Z"/>
      <circle class="cls-1" cx="120.65" cy="53.04" r="8.18"/>
      <circle class="cls-1" cx="148.42" cy="53.04" r="8.18"/>
      <circle class="cls-1" cx="176.19" cy="53.04" r="8.18"/>
    </g>
  </g>
</svg>